<svg width="20" height="20" viewBox="0 0 20 20" fill="none" xmlns="http://www.w3.org/2000/svg">
<g clip-path="url(#clip0_1_26)">
<path d="M4.73295 7.70264L10.8442 2.42538C11.3792 1.9634 12.2222 2.33847 12.2222 3.05607V5.92979C16.7077 6.28503 20 7.7427 20 12.303C20 14.4364 18.6256 16.5498 17.1065 17.6548C16.6324 17.9996 15.9568 17.5668 16.1316 17.0079C17.4688 12.7314 15.9954 11.1231 12.2222 10.6879V13.6107C12.2222 14.3294 11.3785 14.7028 10.8442 14.2414L4.73295 8.96402C4.34854 8.63204 4.34802 8.0351 4.73295 7.70264ZM0.288503 8.96402L6.39975 14.2413C6.93402 14.7027 7.77777 14.3294 7.77777 13.6106V13.0614L4.00673 9.80496C3.79531 9.62246 3.62572 9.39653 3.50951 9.14256C3.3933 8.88859 3.33321 8.61255 3.33333 8.33326C3.33321 8.054 3.3933 7.77799 3.50951 7.52405C3.62571 7.27011 3.79529 7.04421 4.0067 6.86173L7.77777 3.60527V3.05607C7.77777 2.33847 6.93472 1.9634 6.39975 2.42538L0.288503 7.70264C-0.0964279 8.0351 -0.0959071 8.63204 0.288503 8.96402Z" fill="white"/>
</g>
<defs>
<clipPath id="clip0_1_26">
<rect width="20" height="20" fill="white"/>
</clipPath>
</defs>
</svg>
