<svg width="25" height="25" viewBox="0 0 25 25" fill="none" xmlns="http://www.w3.org/2000/svg">
<path d="M24.6328 16.7539L21.1055 13.2305C20.6367 12.7617 20 12.5 19.3359 12.5H16.2383C15.5469 12.5 14.9883 13.0586 14.9883 13.75V16.8438C14.9883 17.5078 15.25 18.1406 15.7187 18.6094L19.2461 22.1328C19.7344 22.6211 20.5273 22.6211 21.0156 22.1328L24.6289 18.5195C25.1211 18.0313 25.1211 17.2422 24.6328 16.7539ZM17.4922 15.9336C16.9727 15.9336 16.5547 15.5156 16.5547 14.9961C16.5547 14.4766 16.9727 14.0586 17.4922 14.0586C18.0117 14.0586 18.4297 14.4766 18.4297 14.9961C18.4297 15.5117 18.0117 15.9336 17.4922 15.9336ZM8.75 12.4961C11.5117 12.4961 13.75 10.2578 13.75 7.49609C13.75 4.73828 11.5117 2.5 8.75 2.5C5.98828 2.5 3.75 4.73828 3.75 7.5C3.75 10.2578 5.98828 12.4961 8.75 12.4961ZM13.7422 16.8398V13.9844C13.2656 13.8438 12.7695 13.7422 12.25 13.7422H11.5977C10.7305 14.1406 9.76562 14.3672 8.75 14.3672C7.73438 14.3672 6.77344 14.1406 5.90234 13.7422H5.25C2.35156 13.7461 0 16.0977 0 18.9961V20.6211C0 21.6562 0.839844 22.4961 1.875 22.4961H15.625C16.2305 22.4961 16.7617 22.2031 17.1055 21.7578L14.8398 19.4922C14.1328 18.7852 13.7422 17.8438 13.7422 16.8398Z" fill="black"/>
</svg>
