<svg width="50" height="50" viewBox="0 0 50 50" fill="none" xmlns="http://www.w3.org/2000/svg">
<g clip-path="url(#clip0_1_20)">
<path d="M25 0.78125C11.6211 0.78125 0.78125 11.6211 0.78125 25C0.78125 38.3789 11.6211 49.2188 25 49.2188C38.3789 49.2188 49.2188 38.3789 49.2188 25C49.2188 11.6211 38.3789 0.78125 25 0.78125ZM25 10.1562C29.7461 10.1562 33.5938 14.0039 33.5938 18.75C33.5938 23.4961 29.7461 27.3438 25 27.3438C20.2539 27.3438 16.4062 23.4961 16.4062 18.75C16.4062 14.0039 20.2539 10.1562 25 10.1562ZM25 43.75C19.2676 43.75 14.1309 41.1523 10.6934 37.0898C12.5293 33.6328 16.123 31.25 20.3125 31.25C20.5469 31.25 20.7813 31.2891 21.0059 31.3574C22.2754 31.7676 23.6035 32.0312 25 32.0312C26.3965 32.0312 27.7344 31.7676 28.9941 31.3574C29.2187 31.2891 29.4531 31.25 29.6875 31.25C33.877 31.25 37.4707 33.6328 39.3066 37.0898C35.8691 41.1523 30.7324 43.75 25 43.75Z" fill="black"/>
</g>
<defs>
<clipPath id="clip0_1_20">
<rect width="50" height="50" fill="white"/>
</clipPath>
</defs>
</svg>
